<?xml version="1.0" standalone="no"?>
<!DOCTYPE svg PUBLIC "-//W3C//DTD SVG 20010904//EN"
 "http://www.w3.org/TR/2001/REC-SVG-20010904/DTD/svg10.dtd">
<svg version="1.0" xmlns="http://www.w3.org/2000/svg"
 width="342.000000pt" height="390.000000pt" viewBox="0 0 342.000000 390.000000"
 preserveAspectRatio="xMidYMid meet">

<g transform="translate(0.000000,390.000000) scale(0.100000,-0.100000)"
fill="#8040ee" stroke="none">
<path d="M1722 3856 c-57 -19 -28 1 -607 -425 -280 -207 -541 -398 -578 -425
-156 -110 -287 -262 -377 -438 -227 -446 -151 -1008 185 -1367 27 -30 118
-113 200 -186 83 -72 353 -313 600 -534 318 -284 466 -410 505 -429 49 -24 67
-27 155 -27 81 0 109 4 145 21 43 20 1305 957 1362 1011 40 38 86 132 96 198
16 101 -9 203 -71 287 -11 15 -125 112 -254 215 -128 103 -233 191 -233 195 0
4 105 88 234 187 251 193 283 227 313 330 20 71 14 189 -14 252 -11 26 -38 66
-59 89 -52 58 -1270 994 -1336 1027 -64 33 -196 42 -266 19z m764 -752 c341
-261 625 -486 632 -499 26 -51 11 -67 -255 -271 l-254 -196 -277 223 c-152
123 -300 236 -328 251 -100 55 -226 58 -328 8 -63 -31 -507 -375 -545 -423
-59 -74 -74 -121 -75 -227 -1 -82 2 -102 25 -150 14 -30 38 -70 53 -87 38 -45
487 -389 550 -421 45 -24 63 -27 146 -27 69 0 108 5 143 19 30 11 160 104 335
239 158 121 292 220 298 220 6 0 123 -91 261 -202 254 -204 273 -224 257 -273
-3 -11 -286 -230 -646 -499 -712 -532 -674 -509 -745 -446 -21 19 -227 202
-458 408 -231 206 -478 426 -550 488 -201 175 -282 279 -345 444 -44 112 -60
203 -60 333 0 322 136 579 410 774 53 37 316 230 584 429 404 298 495 361 521
361 27 0 130 -75 651 -476z m-377 -934 c137 -110 252 -203 255 -208 5 -9 -474
-383 -507 -395 -9 -3 -28 -2 -41 3 -23 9 -397 290 -448 338 -33 30 -37 79 -10
110 15 17 368 291 432 335 13 9 35 17 47 17 15 0 113 -72 272 -200z"/>
</g>
</svg>
